<svg xmlns="http://www.w3.org/2000/svg" xmlns:xlink="http://www.w3.org/1999/xlink" width="156" zoomAndPan="magnify" viewBox="0 0 116.88 30.000001" height="40" preserveAspectRatio="xMidYMid meet" version="1.0"><defs><g/><clipPath id="be031ab96d"><path d="M 1.828125 0.273438 L 31 0.273438 L 31 29.03125 L 1.828125 29.03125 Z M 1.828125 0.273438 " clip-rule="nonzero"/></clipPath></defs><g clip-path="url(#be031ab96d)"><path fill="#0788ff" d="M 4.316406 0.273438 L 28.191406 0.273438 C 28.515625 0.273438 28.832031 0.335938 29.136719 0.460938 C 29.4375 0.589844 29.703125 0.769531 29.9375 1.003906 C 30.167969 1.234375 30.347656 1.503906 30.472656 1.808594 C 30.597656 2.113281 30.660156 2.433594 30.660156 2.761719 L 30.660156 26.816406 C 30.660156 27.148438 30.597656 27.464844 30.472656 27.769531 C 30.347656 28.074219 30.167969 28.34375 29.9375 28.578125 C 29.703125 28.808594 29.4375 28.988281 29.136719 29.117188 C 28.832031 29.242188 28.515625 29.304688 28.191406 29.304688 L 4.316406 29.304688 C 3.988281 29.304688 3.671875 29.242188 3.371094 29.117188 C 3.066406 28.988281 2.800781 28.808594 2.566406 28.578125 C 2.335938 28.34375 2.160156 28.074219 2.03125 27.769531 C 1.90625 27.464844 1.84375 27.148438 1.84375 26.816406 L 1.84375 2.761719 C 1.84375 2.433594 1.90625 2.113281 2.03125 1.808594 C 2.160156 1.503906 2.335938 1.234375 2.566406 1.003906 C 2.800781 0.769531 3.066406 0.589844 3.371094 0.460938 C 3.671875 0.335938 3.988281 0.273438 4.316406 0.273438 Z M 4.316406 0.273438 " fill-opacity="1" fill-rule="nonzero"/></g><path fill="#ffffff" d="M 17.441406 26.007812 C 19.683594 26.007812 21.472656 25.386719 22.800781 24.152344 C 24.109375 22.917969 24.765625 21.1875 24.765625 18.96875 L 24.765625 16.894531 L 20.652344 16.894531 L 20.652344 18.96875 C 20.652344 19.953125 20.378906 20.726562 19.839844 21.292969 C 19.300781 21.835938 18.542969 22.109375 17.5625 22.109375 C 16.648438 22.109375 15.941406 21.835938 15.445312 21.292969 C 14.925781 20.75 14.664062 19.972656 14.664062 18.96875 L 14.664062 7.34375 L 19.714844 15.921875 L 15.785156 3.570312 L 8.054688 3.570312 L 8.054688 7.34375 L 10.550781 7.34375 L 10.550781 18.96875 C 10.550781 21.25 11.164062 23 12.390625 24.214844 C 13.617188 25.410156 15.296875 26.007812 17.441406 26.007812 Z M 17.441406 26.007812 " fill-opacity="1" fill-rule="nonzero"/><g fill="#ffffff" fill-opacity="1"><g transform="translate(31.73032, 24.566868)"><g><path d="M 6.4375 0.265625 C 4.875 0.265625 3.578125 -0.0234375 2.546875 -0.609375 C 1.515625 -1.203125 0.765625 -2 0.296875 -3 L 2.34375 -5.484375 L 2.65625 -5.484375 C 3 -4.679688 3.476562 -4.046875 4.09375 -3.578125 C 4.707031 -3.117188 5.421875 -2.890625 6.234375 -2.890625 C 7.140625 -2.890625 7.8125 -3.15625 8.25 -3.6875 C 8.695312 -4.21875 8.921875 -5.082031 8.921875 -6.28125 L 8.921875 -18.359375 L 12.546875 -18.359375 L 12.546875 -6.21875 C 12.546875 -4 12.039062 -2.363281 11.03125 -1.3125 C 10.019531 -0.257812 8.488281 0.265625 6.4375 0.265625 Z M 6.4375 0.265625 "/></g></g></g><g fill="#ffffff" fill-opacity="1"><g transform="translate(44.868028, 24.566868)"><g><path d="M 10.015625 0.265625 C 8.328125 0.265625 6.835938 -0.078125 5.546875 -0.765625 C 4.265625 -1.453125 3.257812 -2.5 2.53125 -3.90625 C 1.800781 -5.320312 1.4375 -7.082031 1.4375 -9.1875 C 1.4375 -11.28125 1.800781 -13.03125 2.53125 -14.4375 C 3.257812 -15.851562 4.265625 -16.90625 5.546875 -17.59375 C 6.835938 -18.28125 8.328125 -18.625 10.015625 -18.625 C 11.691406 -18.625 13.171875 -18.28125 14.453125 -17.59375 C 15.734375 -16.914062 16.734375 -15.867188 17.453125 -14.453125 C 18.179688 -13.035156 18.546875 -11.28125 18.546875 -9.1875 C 18.546875 -7.082031 18.179688 -5.320312 17.453125 -3.90625 C 16.734375 -2.488281 15.734375 -1.4375 14.453125 -0.75 C 13.171875 -0.0703125 11.691406 0.265625 10.015625 0.265625 Z M 10.015625 -2.890625 C 11.566406 -2.890625 12.753906 -3.390625 13.578125 -4.390625 C 14.398438 -5.390625 14.8125 -6.988281 14.8125 -9.1875 C 14.8125 -11.375 14.398438 -12.96875 13.578125 -13.96875 C 12.753906 -14.976562 11.566406 -15.484375 10.015625 -15.484375 C 8.441406 -15.484375 7.242188 -14.976562 6.421875 -13.96875 C 5.597656 -12.96875 5.1875 -11.375 5.1875 -9.1875 C 5.1875 -6.988281 5.597656 -5.390625 6.421875 -4.390625 C 7.242188 -3.390625 8.441406 -2.890625 10.015625 -2.890625 Z M 10.015625 -2.890625 "/></g></g></g><g fill="#ffffff" fill-opacity="1"><g transform="translate(63.188936, 24.566868)"><g><path d="M 2.390625 0 L 2.390625 -18.359375 L 10.21875 -18.359375 C 11.351562 -18.359375 12.3125 -18.179688 13.09375 -17.828125 C 13.875 -17.472656 14.460938 -16.96875 14.859375 -16.3125 C 15.265625 -15.65625 15.46875 -14.878906 15.46875 -13.984375 C 15.46875 -13.171875 15.269531 -12.453125 14.875 -11.828125 C 14.488281 -11.210938 13.925781 -10.710938 13.1875 -10.328125 L 13.1875 -10.078125 C 14.34375 -9.773438 15.234375 -9.222656 15.859375 -8.421875 C 16.484375 -7.628906 16.796875 -6.65625 16.796875 -5.5 C 16.796875 -3.738281 16.265625 -2.378906 15.203125 -1.421875 C 14.148438 -0.472656 12.582031 0 10.5 0 Z M 9.46875 -11.03125 C 11.15625 -11.03125 12 -11.796875 12 -13.328125 C 12 -14.097656 11.789062 -14.675781 11.375 -15.0625 C 10.957031 -15.445312 10.320312 -15.640625 9.46875 -15.640625 L 6.015625 -15.640625 L 6.015625 -11.03125 Z M 10.140625 -2.875 C 12.140625 -2.875 13.140625 -3.78125 13.140625 -5.59375 C 13.140625 -7.425781 12.140625 -8.34375 10.140625 -8.34375 L 6.015625 -8.34375 L 6.015625 -2.875 Z M 10.140625 -2.875 "/></g></g></g><g fill="#ffffff" fill-opacity="1"><g transform="translate(79.464177, 24.566868)"><g><path d="M 17.625 0 L 13.796875 0 L 12.421875 -4.234375 L 5.390625 -4.234375 L 4 0 L 0.28125 0 L 6.625 -18.359375 L 11.28125 -18.359375 Z M 8.734375 -14.53125 L 6.359375 -7.28125 L 11.421875 -7.28125 L 9.046875 -14.53125 Z M 8.734375 -14.53125 "/></g></g></g><g fill="#ffffff" fill-opacity="1"><g transform="translate(95.676663, 24.566868)"><g><path d="M 5.90625 0 L 2.390625 0 L 2.390625 -18.359375 L 6.546875 -18.359375 L 13.921875 -6.53125 L 14.234375 -6.578125 L 14.234375 -18.359375 L 17.734375 -18.359375 L 17.734375 0 L 14.015625 0 L 6.21875 -12.640625 L 5.90625 -12.578125 Z M 5.90625 0 "/></g></g></g></svg>